<svg width="38" height="38" viewBox="0 0 38 38" fill="none" xmlns="http://www.w3.org/2000/svg">
    <path d="M37.5653 11.0725C37.4771 9.07139 37.1534 7.69567 36.6898 6.50359C36.2114 5.23822 35.4756 4.10533 34.5115 3.16356C33.5696 2.20714 32.429 1.46395 31.178 0.993212C29.9788 0.529656 28.61 0.206057 26.6086 0.117829C24.5922 0.0221288 23.952 0 18.8378 0C13.7237 0 13.0835 0.0221288 11.0746 0.110357C9.07313 0.198585 7.69714 0.522471 6.50511 0.98574C5.23922 1.46395 4.10612 2.19967 3.16417 3.16356C2.20756 4.10533 1.46452 5.24569 0.993402 6.4964C0.529757 7.69567 0.206096 9.06392 0.117851 11.065C0.0221331 13.081 0 13.721 0 18.8342C0 23.9474 0.0221331 24.5875 0.110378 26.596C0.198623 28.5971 0.522571 29.9728 0.986216 31.1649C1.46452 32.4303 2.20756 33.5632 3.16417 34.5049C4.10612 35.4614 5.24669 36.2045 6.49764 36.6753C7.69714 37.1388 9.06565 37.4624 11.0674 37.5507C13.0761 37.6392 13.7165 37.661 18.8307 37.661C23.9448 37.661 24.585 37.6392 26.5939 37.5507C28.5954 37.4624 29.9714 37.1388 31.1634 36.6753C33.6949 35.6967 35.6963 33.6956 36.6751 31.1649C37.1384 29.9656 37.4624 28.5971 37.5506 26.596C37.6389 24.5875 37.661 23.9474 37.661 18.8342C37.661 13.721 37.6535 13.081 37.5653 11.0725ZM34.1732 26.4489C34.0921 28.2882 33.7831 29.2814 33.5256 29.9435C32.8926 31.5842 31.5902 32.8864 29.9492 33.5192C29.287 33.7767 28.2864 34.0856 26.4539 34.1664C24.4671 34.2549 23.8712 34.2767 18.8453 34.2767C13.8194 34.2767 13.216 34.2549 11.2364 34.1664C9.39679 34.0856 8.40339 33.7767 7.74112 33.5192C6.92449 33.2174 6.18117 32.7392 5.57782 32.1139C4.95235 31.5032 4.47404 30.7674 4.17223 29.951C3.91468 29.2888 3.60568 28.2882 3.52491 26.4563C3.43638 24.4699 3.41453 23.8739 3.41453 18.8489C3.41453 13.8239 3.43638 13.2207 3.52491 11.2417C3.60568 9.40247 3.91468 8.40925 4.17223 7.74711C4.47404 6.93036 4.95235 6.18746 5.5853 5.58394C6.19583 4.95859 6.93168 4.48038 7.74859 4.17891C8.41086 3.92141 9.41173 3.61246 11.2439 3.53142C13.2307 3.44319 13.8269 3.42106 18.8525 3.42106C23.8859 3.42106 24.4818 3.44319 26.4614 3.53142C28.301 3.61246 29.2944 3.92141 29.9567 4.17891C30.7733 4.48038 31.5166 4.95859 32.12 5.58394C32.7455 6.19464 33.2238 6.93036 33.5256 7.74711C33.7831 8.40925 34.0921 9.40965 34.1732 11.2417C34.2614 13.2282 34.2836 13.8239 34.2836 18.8489C34.2836 23.8739 34.2614 24.4624 34.1732 26.4489Z" fill="#E30613"/>
    <path d="M18.8305 9.11793C13.4685 9.11793 9.11793 13.4682 9.11793 18.8305C9.11793 24.1929 13.4685 28.5431 18.8305 28.5431C24.1929 28.5431 28.5431 24.1929 28.5431 18.8305C28.5431 13.4682 24.1929 9.11793 18.8305 9.11793ZM18.8305 25.1308C15.3519 25.1308 12.5302 22.3094 12.5302 18.8305C12.5302 15.3516 15.3519 12.5302 18.8305 12.5302C22.3094 12.5302 25.1308 15.3516 25.1308 18.8305C25.1308 22.3094 22.3094 25.1308 18.8305 25.1308Z" fill="#E30613"/>
    <path d="M30.9217 8.52328C30.9217 9.72736 29.9454 10.7037 28.7412 10.7037C27.5372 10.7037 26.5609 9.72736 26.5609 8.52328C26.5609 7.31893 27.5372 6.34291 28.7412 6.34291C29.9454 6.34291 30.9217 7.31893 30.9217 8.52328Z" fill="#E30613"/>
</svg>
