<svg width="116" height="74" viewBox="0 0 116 74" fill="none" xmlns="http://www.w3.org/2000/svg">
    <path d="M63.6056 26.3216C63.4737 26.3377 63.3399 26.3165 63.2195 26.2602C62.2074 25.7841 57.3282 23.3479 58.3431 21.0181C59.0851 19.3158 60.7724 19.3608 61.8459 19.5927C61.9577 19.617 62.0619 19.6683 62.1494 19.742C62.2369 19.8158 62.305 19.9098 62.3479 20.0158C62.3908 20.1219 62.4071 20.2369 62.3955 20.3507C62.3838 20.4645 62.3446 20.5738 62.2811 20.6689C62.2041 20.7846 62.0946 20.8748 61.9664 20.9282C61.8383 20.9816 61.6971 20.9958 61.5608 20.969C61.0712 20.8681 60.3114 20.8067 60.0072 21.2855C59.5407 22.0166 60.9388 23.4148 63.8661 24.7461C66.3459 25.8728 64.293 26.2356 63.6056 26.3216Z" fill="#6FB63B"/>
    <path d="M63.3859 24.9302C63.3859 24.9302 59.508 23.2934 59.508 21.5433C59.6075 20.6471 60.6469 20.5885 61.4517 20.6267C61.4758 20.6267 61.499 20.6179 61.517 20.602C61.535 20.586 61.5466 20.564 61.5494 20.5401C61.5523 20.5162 61.5463 20.4921 61.5326 20.4724C61.5188 20.4526 61.4983 20.4386 61.4749 20.433C60.6278 20.2543 59.2461 20.3907 59.156 21.5242C59.0933 22.359 59.3565 23.5089 62.9058 25.4377C63.0463 25.3122 63.3859 24.9302 63.3859 24.9302Z" fill="#1D1D1B"/>
    <path d="M65.3311 23.5471C62.3302 24.2769 61.67 26.7417 61.67 28.339C61.67 34.3285 67.594 33.6192 67.594 39.2091C67.594 40.3631 66.174 45.7756 59.2529 45.7756C54.3 45.7756 50.1451 42.7092 46.0953 41.6466C45.5343 39.835 44.5915 38.1647 43.3303 36.7483C42.7192 36.0909 41.6717 36.9148 42.19 37.6663C42.9352 38.7797 43.4974 40.0051 43.8555 41.2961C42.0604 41.1597 40.0566 42.5524 39.1741 44.3325C38.2915 46.1125 38.4007 48.9811 41.2993 49.8664C43.8678 50.5825 46.1075 49.1939 46.5563 46.5763C46.574 46.4822 46.5891 46.3881 46.6027 46.294C49.2558 48.1463 53.8321 51.1063 59.7576 51.1063C71.1965 51.1063 77.3101 44.889 77.3101 36.792C77.3101 25.8114 70.2553 22.3495 65.3311 23.5471ZM44.086 45.777C43.8473 46.5763 43.4531 47.3061 42.5651 47.2679C42.262 47.2737 41.9605 47.2214 41.6771 47.1137C41.3729 46.9542 41.2283 46.3021 41.4261 45.5969C41.5994 44.9749 42.0863 44.3543 42.7015 44.162C43.3385 43.9628 43.7928 44.3393 44.1419 44.5043C44.1863 44.5243 44.2233 44.5577 44.2478 44.5998C44.2722 44.6418 44.2829 44.6905 44.2784 44.7389C44.2447 45.0899 44.1803 45.4372 44.086 45.777Z" fill="#E30613"/>
    <path d="M68.8353 4.38086C66.5737 4.38086 64.0434 0.875259 55.6586 0.875259C43.1912 0.875259 40.0893 9.40874 40.0893 15.3342C40.0893 23.1092 48.4714 29.8531 58.0102 29.8531C58.0102 29.8531 59.628 29.7603 59.628 29.0347C59.628 26.6189 54.1322 22.344 54.1322 14.1665C54.1322 14.1665 54.4228 7.55091 61.2253 7.55091C62.5334 7.55091 68.9867 7.2781 69.3741 14.9768C69.3769 15.0447 69.3985 15.1106 69.4364 15.167C69.4744 15.2235 69.5272 15.2683 69.5891 15.2966C69.651 15.3248 69.7194 15.3354 69.7869 15.3271C69.8545 15.3188 69.9184 15.292 69.9715 15.2496C71.1992 14.2688 73.5331 12.1382 70.9073 8.78537C70.6685 8.48127 70.5471 8.10138 70.5654 7.71515C70.5837 7.32893 70.7404 6.96219 71.0069 6.68201C72.3273 5.29205 73.1593 3.09456 70.734 1.24082C70.6793 1.19881 70.6139 1.17296 70.5452 1.16619C70.4766 1.15942 70.4074 1.17201 70.3455 1.20253C70.2836 1.23304 70.2315 1.28028 70.1951 1.33887C70.1586 1.39747 70.1393 1.46509 70.1393 1.53409C70.1393 2.70172 70.0288 4.38086 68.8353 4.38086Z" fill="white"/>
    <path d="M57.6406 3.79568C50.4398 2.76719 46.8714 6.43102 46.5236 8.86585C45.8688 13.4463 50.0114 15.9589 52.1871 16.9465C52.24 16.9706 52.2983 16.9806 52.3563 16.9753C52.4142 16.97 52.4698 16.9497 52.5174 16.9163C52.5651 16.883 52.6032 16.8378 52.6281 16.7852C52.6529 16.7325 52.6636 16.6744 52.6591 16.6164C52.5537 15.3228 52.594 14.0216 52.7791 12.737V12.7029V12.6688C53.0609 11.3992 53.6142 10.2056 54.4009 9.17003C55.604 7.59319 57.8561 5.82948 61.7668 6.38738L61.8759 6.40238L62.0628 6.42829C62.3811 6.47285 62.6898 6.52833 62.989 6.59471C63.0642 6.60985 63.1424 6.59875 63.2104 6.56326C63.2784 6.52778 63.3322 6.47005 63.3629 6.3997C63.3935 6.32934 63.3991 6.25062 63.3787 6.17664C63.3583 6.10267 63.3132 6.03791 63.2509 5.99316C60.5092 4.07395 58.4303 3.9089 57.6406 3.79568Z" fill="#1D1D1B"/>
    <path d="M52.1203 25.9533C52.9098 25.9533 53.5498 25.3133 53.5498 24.5238C53.5498 23.7343 52.9098 23.0942 52.1203 23.0942C51.3308 23.0942 50.6907 23.7343 50.6907 24.5238C50.6907 25.3133 51.3308 25.9533 52.1203 25.9533Z" fill="#1D1D1B"/>
    <path d="M51.7574 24.1746L51.7697 24.1636C51.9076 24.0462 52.0733 23.9661 52.251 23.931C52.4287 23.8959 52.6124 23.9069 52.7846 23.9631C52.7947 23.9669 52.8059 23.9672 52.8162 23.964C52.8266 23.9607 52.8356 23.9542 52.8418 23.9453C52.8481 23.9364 52.8512 23.9257 52.8507 23.9149C52.8502 23.904 52.8461 23.8937 52.8391 23.8854C52.5254 23.5335 51.9579 23.4134 51.4219 23.8158L51.411 23.8267C51.0018 24.3628 51.1286 24.9302 51.4792 25.244C51.4876 25.2505 51.498 25.2542 51.5086 25.2544C51.5193 25.2547 51.5298 25.2516 51.5386 25.2455C51.5474 25.2395 51.5541 25.2308 51.5576 25.2207C51.5611 25.2106 51.5614 25.1996 51.5583 25.1894C51.5022 25.0173 51.491 24.8337 51.5259 24.6561C51.5607 24.4784 51.6404 24.3127 51.7574 24.1746Z" fill="white"/>
    <path d="M72.4719 27.0936C74.1455 28.9733 75.1208 31.7218 75.3213 35.0938C75.3252 35.1646 75.3507 35.2325 75.3943 35.2883C75.438 35.3442 75.4977 35.3853 75.5655 35.4061C75.6195 35.4225 75.6767 35.4255 75.732 35.4148C75.7874 35.404 75.8393 35.3799 75.8833 35.3446C75.9273 35.3092 75.9619 35.2637 75.9843 35.2119C76.0066 35.1601 76.016 35.1036 76.0116 35.0474C75.7538 31.7914 74.7621 29.1261 73.1034 27.2723C71.8584 25.8578 70.1571 24.9243 68.2951 24.6342C69.9143 24.987 71.378 25.8488 72.4719 27.0936Z" fill="#1D1D1B"/>
    <path d="M75.8274 36.8766L75.7892 36.8643C75.7386 36.849 75.6852 36.8456 75.633 36.8542C75.5809 36.8628 75.5314 36.8832 75.4883 36.9139C75.4453 36.9446 75.4098 36.9847 75.3847 37.0312C75.3595 37.0777 75.3453 37.1293 75.3432 37.1821C75.3432 37.298 75.3336 37.414 75.3255 37.5286C75.321 37.6059 75.3429 37.6825 75.3874 37.7459C75.432 37.8093 75.4967 37.8558 75.571 37.8778L75.6146 37.8914C75.665 37.9066 75.7182 37.9101 75.7702 37.9017C75.8222 37.8932 75.8715 37.873 75.9145 37.8427C75.9575 37.8123 75.993 37.7725 76.0183 37.7264C76.0437 37.6802 76.0581 37.6289 76.0607 37.5763C76.0607 37.4563 76.0702 37.3349 76.073 37.2135C76.0746 37.1382 76.0515 37.0644 76.0071 37.0035C75.9627 36.9427 75.8996 36.8981 75.8274 36.8766Z" fill="#1D1D1B"/>
    <path d="M75.5137 39.2514C75.4675 39.2375 75.419 39.2334 75.3711 39.2394C75.3233 39.2454 75.2773 39.2613 75.2359 39.286C75.1946 39.3108 75.1589 39.3439 75.1311 39.3833C75.1033 39.4227 75.084 39.4674 75.0744 39.5146C74.6257 41.809 73.6436 43.7282 72.139 45.2436C72.139 45.2436 68.4956 49.6359 59.6075 50.1406C65.5916 50.1406 70.0166 48.4341 72.761 45.732C74.3501 44.1674 75.3732 42.165 75.8192 39.7574C75.8394 39.6504 75.8194 39.5398 75.763 39.4466C75.7066 39.3535 75.6178 39.2845 75.5137 39.2527V39.2514Z" fill="#1D1D1B"/>
    <path d="M46.9246 23.7531C46.8604 23.0331 46.9776 22.3086 47.2656 21.6456C47.4118 21.3031 47.6086 20.9844 47.8494 20.7003C48.0952 20.4102 48.3897 20.1651 48.7197 19.976C49.0492 19.7891 49.4073 19.6577 49.7795 19.5873C49.8709 19.5682 49.965 19.5613 50.0523 19.5477L50.1888 19.5313H50.3252C50.4179 19.5313 50.5093 19.5313 50.598 19.5313L50.8708 19.5491C51.5869 19.6107 52.283 19.8172 52.9168 20.1561C52.24 20.0525 51.5553 20.0091 50.8708 20.0265L50.6225 20.0415L50.3784 20.0715L50.257 20.0865L50.1369 20.111C50.0592 20.1288 49.9773 20.1397 49.9009 20.1615C49.8246 20.1833 49.7468 20.2065 49.669 20.227C49.5913 20.2475 49.5204 20.2829 49.4453 20.3102C49.3713 20.3374 49.2989 20.3688 49.2285 20.4043L49.1207 20.4548L49.0198 20.5148C48.4635 20.8446 48.0039 21.3151 47.6871 21.8789C47.3496 22.4664 47.0931 23.0968 46.9246 23.7531Z" fill="#1D1D1B"/>
    <path d="M3.05683 68.8362C3.05683 71.3938 9.2387 70.8441 9.2387 69.4582C9.2387 67.5035 0 68.7653 0 64.4112C0 62.3651 1.68869 60.6983 5.91724 60.6805C10.8906 60.7869 12.3828 62.4743 12.2587 65.246H9.1855C9.15003 62.9367 3.00227 62.6693 3.00227 64.624C3.00227 66.5432 12.2587 65.1696 12.2587 69.6342C12.2587 71.6802 10.7487 73.0988 5.91724 73.1166C1.54546 73.0634 -0.0177335 71.3747 0.0886623 68.8348L3.05683 68.8362Z" fill="white"/>
    <path d="M18.727 73.118C18.4774 72.2641 16.7014 67.6809 16.7014 67.6809V73.118H13.6091V60.6819H16.6837L19.7746 69.4937L22.9542 60.6819H26.0465V73.118H22.9542V67.6877C22.9542 67.6877 21.125 72.2709 20.8754 73.1248L18.727 73.118Z" fill="white"/>
    <path d="M33.5829 73.118C32.3556 73.1161 31.1565 72.7505 30.1368 72.0675C29.1172 71.3846 28.3229 70.4147 27.8541 69.2805C27.3853 68.1464 27.2632 66.8987 27.5031 65.6951C27.7429 64.4916 28.3341 63.3861 29.2019 62.5183C30.0697 61.6505 31.1752 61.0593 32.3787 60.8194C33.5823 60.5796 34.83 60.7017 35.9641 61.1705C37.0983 61.6393 38.0682 62.4336 38.7512 63.4532C39.4341 64.4729 39.7997 65.672 39.8016 66.8993C39.7998 68.548 39.144 70.1287 37.9782 71.2945C36.8123 72.4604 35.2316 73.1161 33.5829 73.118ZM33.5829 63.7906C32.9631 63.7874 32.3563 63.9684 31.8397 64.3108C31.323 64.6531 30.9197 65.1413 30.6811 65.7133C30.4425 66.2853 30.3793 66.9154 30.4995 67.5234C30.6198 68.1314 30.918 68.69 31.3563 69.1281C31.7947 69.5663 32.3534 69.8643 32.9615 69.9842C33.5695 70.1042 34.1995 70.0407 34.7715 69.8018C35.3434 69.563 35.8314 69.1595 36.1735 68.6427C36.5156 68.1259 36.6964 67.519 36.6929 66.8993C36.6854 66.0769 36.3553 65.2903 35.7736 64.7089C35.192 64.1275 34.4053 63.7977 33.5829 63.7906Z" fill="white"/>
    <path d="M49.3554 73.118H41.1124V60.6819H44.2034V70.0257H49.3554V73.118Z" fill="white"/>
    <path d="M53.7271 68.8362C53.7271 71.3938 59.909 70.8441 59.909 69.4582C59.909 67.5035 50.6703 68.7653 50.6703 64.4112C50.6703 62.3652 52.359 60.6983 56.5875 60.6806C61.5609 60.787 63.0545 62.4743 62.929 65.246H59.8558C59.8203 62.9367 53.6726 62.6693 53.6726 64.624C53.6726 66.5432 62.929 65.1696 62.929 69.6342C62.929 71.6803 61.419 73.0989 56.5875 73.1166C52.2226 73.0634 50.6526 71.3747 50.759 68.8348L53.7271 68.8362Z" fill="white"/>
    <path d="M64.2739 73.118V60.6819H67.3662C67.3662 60.6819 73.619 68.1078 73.619 68.2851V60.6819H76.7113V73.118H73.6245C73.6245 73.118 67.3717 65.5843 67.3717 65.407V73.118H64.2739Z" fill="white"/>
    <path d="M87.6074 73.118L87.0386 71.5548H81.656L81.1104 73.118H78.0317L82.2958 60.6819H86.4343L90.6983 73.118H87.6074ZM82.2958 68.6166L86.3634 68.5989L84.747 63.9093L84.0895 63.5533L82.2958 68.6166Z" fill="white"/>
    <path d="M102.246 68.8894C101.781 70.2456 100.859 71.3982 99.639 72.1507C98.4186 72.9032 96.9749 73.209 95.5542 73.0157C94.1335 72.8225 92.8239 72.1423 91.8488 71.0912C90.8736 70.04 90.2935 68.6831 90.2072 67.2519C90.121 65.8207 90.534 64.404 91.3759 63.2434C92.2177 62.0828 93.4362 61.2502 94.8234 60.8878C96.2106 60.5254 97.6806 60.6555 98.9826 61.256C100.285 61.8566 101.338 62.8902 101.963 64.1807L99.1199 65.4083C98.9345 65.0482 98.6785 64.729 98.3674 64.4696C98.0562 64.2102 97.6961 64.0159 97.3085 63.8983C96.9177 63.7758 96.5066 63.7315 96.0987 63.7678C95.6908 63.8042 95.294 63.9205 94.9311 64.1102C94.5681 64.2998 94.2461 64.5592 93.9833 64.8733C93.7206 65.1874 93.5223 65.5502 93.3998 65.941C93.2773 66.3318 93.2329 66.7429 93.2693 67.1508C93.3056 67.5587 93.4219 67.9554 93.6116 68.3184C93.8013 68.6814 94.0606 69.0034 94.3747 69.2661C94.6889 69.5289 95.0517 69.7272 95.4425 69.8497C95.833 69.9736 96.2444 70.0183 96.6525 69.9813C97.0605 69.9444 97.4571 69.8264 97.8191 69.6344C98.1811 69.4424 98.5011 69.1801 98.7605 68.863C99.02 68.5458 99.2135 68.1801 99.33 67.7872L102.246 68.8894Z" fill="white"/>
    <path d="M115.999 73.118C113.067 73.118 110.615 71.1987 109.922 68.4625H106.648V73.118H103.559V60.6819H106.649V65.3538H109.923C110.274 64.0123 111.062 62.8261 112.162 61.9831C113.263 61.14 114.614 60.6884 116 60.6997V63.7906C114.258 63.7906 112.784 65.141 112.784 66.8993C112.784 68.6944 114.258 70.0366 116 70.0366L115.999 73.118Z" fill="white"/>
</svg>
