<svg width="57" height="35" viewBox="0 0 57 35" fill="none" xmlns="http://www.w3.org/2000/svg">
    <path d="M47.3524 20.3446C46.4391 19.1462 46.7004 18.6131 47.3524 17.542C47.3642 17.5298 54.9037 6.70588 55.6805 3.03516L55.6852 3.03271C56.0713 1.69501 55.6852 0.711914 53.8186 0.711914H47.642C46.0696 0.711914 45.3446 1.55562 44.9562 2.49959C44.9562 2.49959 41.8114 10.3204 37.3625 15.3899C35.9266 16.8548 35.2628 17.3243 34.479 17.3243C34.0929 17.3243 33.4927 16.8548 33.4927 15.5171V3.03271C33.4927 1.42845 33.0525 0.711914 31.7508 0.711914H22.0386C21.0524 0.711914 20.4662 1.46024 20.4662 2.15722C20.4662 3.67833 22.6907 4.02804 22.9214 8.3077V17.5933C22.9214 19.628 22.5659 20.0022 21.7774 20.0022C19.6777 20.0022 14.5815 12.1496 11.5615 3.16233C10.9518 1.41867 10.3563 0.714359 8.77209 0.714359H2.59311C0.830047 0.714359 0.474609 1.55806 0.474609 2.50203C0.474609 4.16988 2.57428 12.4626 10.2386 23.4186C15.3465 30.897 22.54 34.9492 29.0838 34.9492C33.0172 34.9492 33.4974 34.0493 33.4974 32.5012C33.4974 25.3554 33.142 24.6805 35.1122 24.6805C36.0255 24.6805 37.5979 25.15 41.27 28.7571C45.467 33.0344 46.1567 34.9492 48.5058 34.9492H54.6825C56.4432 34.9492 57.3353 34.0493 56.8221 32.2738C55.6476 28.5395 47.7102 20.8581 47.3524 20.3446Z" fill="#E30613"/>
</svg>
